<mxfile host="Electron" modified="2023-12-02T21:35:40.128Z" agent="Mozilla/5.0 (Windows NT 10.0; Win64; x64) AppleWebKit/537.36 (KHTML, like Gecko) draw.io/22.1.2 Chrome/114.0.5735.289 Electron/25.9.4 Safari/537.36" etag="7pzncvcMG4MlJDhkka0L" version="22.1.2" type="device">
  <diagram name="PÃ¡gina-1" id="lM0KGANir0HSnuUyXg3t">
    <mxGraphModel dx="864" dy="516" grid="1" gridSize="10" guides="1" tooltips="1" connect="1" arrows="1" fold="1" page="1" pageScale="1" pageWidth="827" pageHeight="1169" math="0" shadow="0">
      <root>
        <mxCell id="0" />
        <mxCell id="1" parent="0" />
        <mxCell id="ZCMF_s_vXuf4nwqlZ-b4-3" value="" style="edgeStyle=orthogonalEdgeStyle;rounded=0;orthogonalLoop=1;jettySize=auto;html=1;" edge="1" parent="1" source="ZCMF_s_vXuf4nwqlZ-b4-1" target="ZCMF_s_vXuf4nwqlZ-b4-2">
          <mxGeometry relative="1" as="geometry" />
        </mxCell>
        <mxCell id="ZCMF_s_vXuf4nwqlZ-b4-1" value="Tecnologia ao Alcance de Todos" style="rounded=0;whiteSpace=wrap;html=1;" vertex="1" parent="1">
          <mxGeometry x="249" y="310" width="120" height="60" as="geometry" />
        </mxCell>
        <mxCell id="ZCMF_s_vXuf4nwqlZ-b4-5" value="" style="edgeStyle=orthogonalEdgeStyle;rounded=0;orthogonalLoop=1;jettySize=auto;html=1;" edge="1" parent="1" source="ZCMF_s_vXuf4nwqlZ-b4-2" target="ZCMF_s_vXuf4nwqlZ-b4-4">
          <mxGeometry relative="1" as="geometry" />
        </mxCell>
        <mxCell id="ZCMF_s_vXuf4nwqlZ-b4-2" value="Escola" style="whiteSpace=wrap;html=1;rounded=0;" vertex="1" parent="1">
          <mxGeometry x="249" y="160" width="120" height="60" as="geometry" />
        </mxCell>
        <mxCell id="ZCMF_s_vXuf4nwqlZ-b4-7" value="" style="edgeStyle=orthogonalEdgeStyle;rounded=0;orthogonalLoop=1;jettySize=auto;html=1;" edge="1" parent="1" source="ZCMF_s_vXuf4nwqlZ-b4-4" target="ZCMF_s_vXuf4nwqlZ-b4-6">
          <mxGeometry relative="1" as="geometry" />
        </mxCell>
        <mxCell id="ZCMF_s_vXuf4nwqlZ-b4-4" value="Sala de Aula" style="whiteSpace=wrap;html=1;rounded=0;" vertex="1" parent="1">
          <mxGeometry x="459" y="160" width="120" height="60" as="geometry" />
        </mxCell>
        <mxCell id="ZCMF_s_vXuf4nwqlZ-b4-6" value="Aluno" style="whiteSpace=wrap;html=1;rounded=0;" vertex="1" parent="1">
          <mxGeometry x="459" y="310" width="120" height="60" as="geometry" />
        </mxCell>
      </root>
    </mxGraphModel>
  </diagram>
</mxfile>
